HIERARCHY
ROOT Hips
{
	OFFSET -0.001795 -0.223333 0.028219
	CHANNELS 6 Xposition Yposition Zposition Zrotation Yrotation Xrotation 
	JOINT LeftUpLeg
	{
		OFFSET 0.069520 -0.091406 -0.006815
		CHANNELS 3 Zrotation Yrotation Xrotation
		JOINT LeftLeg
		{
			OFFSET 0.034277 -0.375199 -0.004496
			CHANNELS 3 Zrotation Yrotation Xrotation
			JOINT LeftFoot
			{
				OFFSET -0.013596 -0.397961 -0.043693
				CHANNELS 3 Zrotation Yrotation Xrotation
				JOINT LeftToe
				{
					OFFSET 0.026358 -0.055791 0.119288
					CHANNELS 3 Zrotation Yrotation Xrotation
					End Site
					{
						OFFSET 0.000000 0.000000 0.000000
					}
				}
			}
		}
	}
	JOINT RightUpLeg
	{
		OFFSET -0.067670 -0.090522 -0.004320
		CHANNELS 3 Zrotation Yrotation Xrotation
		JOINT RightLeg
		{
			OFFSET -0.038290 -0.382569 -0.008850
			CHANNELS 3 Zrotation Yrotation Xrotation
			JOINT RightFoot
			{
				OFFSET 0.015774 -0.398415 -0.042312
				CHANNELS 3 Zrotation Yrotation Xrotation
				JOINT RightToe
				{
					OFFSET -0.025372 -0.048144 0.123348
					CHANNELS 3 Zrotation Yrotation Xrotation
					End Site
					{
						OFFSET 0.000000 0.000000 0.000000
					}
				}
			}
		}
	}
	JOINT Spine
	{
		OFFSET -0.002533 0.108963 -0.026696
		CHANNELS 3 Zrotation Yrotation Xrotation
		JOINT Spine1
		{
			OFFSET 0.005487 0.135180 0.001092
			CHANNELS 3 Zrotation Yrotation Xrotation
			JOINT Spine2
			{
				OFFSET 0.001457 0.052922 0.025425
				CHANNELS 3 Zrotation Yrotation Xrotation
				JOINT Neck
				{
					OFFSET -0.002778 0.213870 -0.042857
					CHANNELS 3 Zrotation Yrotation Xrotation
					JOINT Head
					{
						OFFSET 0.005152 0.064970 0.051349
						CHANNELS 3 Zrotation Yrotation Xrotation
						End Site
						{
							OFFSET 0.000000 0.000000 0.000000
						}
					}
				}
				JOINT LeftShoulder
				{
					OFFSET 0.078845 0.121749 -0.034090
					CHANNELS 3 Zrotation Yrotation Xrotation
					JOINT LeftArm
					{
						OFFSET 0.090977 0.030469 -0.008868
						CHANNELS 3 Zrotation Yrotation Xrotation
						JOINT LeftForeArm
						{
							OFFSET 0.259612 -0.012772 -0.027456
							CHANNELS 3 Zrotation Yrotation Xrotation
							JOINT LeftHand
							{
								OFFSET 0.249234 0.008986 -0.001171
								CHANNELS 3 Zrotation Yrotation Xrotation
								End Site
								{
									OFFSET 0.000000 0.000000 0.000000
								}
							}
						}
					}
				}
				JOINT RightShoulder
				{
					OFFSET -0.081759 0.118833 -0.038615
					CHANNELS 3 Zrotation Yrotation Xrotation
					JOINT RightArm
					{
						OFFSET -0.096012 0.032551 -0.009143
						CHANNELS 3 Zrotation Yrotation Xrotation
						JOINT RightForeArm
						{
							OFFSET -0.253742 -0.013329 -0.021401
							CHANNELS 3 Zrotation Yrotation Xrotation
							JOINT RightHand
							{
								OFFSET -0.255298 0.007772 -0.005559
								CHANNELS 3 Zrotation Yrotation Xrotation
								End Site
								{
									OFFSET 0.000000 0.000000 0.000000
								}
							}
						}
					}
				}
			}
		}
	}
}
MOTION
Frames: 5
Frame Time: 0.050000
0.000000 0.887644 0.000000 3.189979 1.129651 37.397047 9.551614 -1.278974 -54.434732 -4.274780 0.587064 26.229362 3.753864 9.623255 2.324345 0.000000 0.000000 0.000000 -17.421733 -2.769787 -59.142106 7.488283 -1.862025 26.301415 -3.945289 -11.076220 -0.754265 0.000000 0.000000 0.000000 7.031092 -6.141269 42.102194 1.197687 -0.312172 -5.381703 4.274825 10.697435 17.731404 5.867824 -0.889937 -19.844491 0.000000 0.000000 0.000000 -4.120626 0.516840 -1.904115 -56.566942 -0.117720 -8.057022 -96.576404 -49.044759 53.950096 0.000000 0.000000 0.000000 -8.095604 0.602823 0.303160 50.053935 19.107532 3.432896 -120.604009 66.458998 -81.028578 0.000000 0.000000 0.000000 
0.000581 0.887104 0.001776 2.396612 0.743436 38.165251 11.127142 -0.478299 -54.010069 -4.910527 0.882026 26.766054 3.988674 9.775418 1.128649 0.000000 0.000000 0.000000 -16.439160 -2.191275 -60.217755 7.025114 -1.640714 26.235018 -3.303742 -9.373535 -0.552189 0.000000 0.000000 0.000000 6.474685 -5.796234 42.599916 0.981785 -0.268391 -4.345117 4.453041 10.058328 16.541137 -0.075661 1.837817 -15.992142 0.000000 0.000000 0.000000 -5.678536 1.352286 -2.524408 -50.815620 4.005665 -8.280368 -107.041195 -52.381487 67.119996 0.000000 0.000000 0.000000 -6.177562 1.519138 0.808118 46.507305 21.237156 3.452137 -118.353951 60.502355 -71.611886 0.000000 0.000000 0.000000 
0.001077 0.885130 0.003021 2.185187 0.127518 37.454455 11.151212 -0.293901 -53.197188 -3.927056 0.576594 26.552249 3.070231 6.794022 -1.480062 0.000000 0.000000 0.000000 -16.734542 -2.132139 -60.370393 7.820965 -1.996446 28.420903 -4.079280 -11.670558 -0.130450 0.000000 0.000000 0.000000 5.630453 -5.388518 44.691241 0.282877 0.008819 -4.817635 4.434703 10.784292 16.358900 2.440623 0.125833 -13.171294 0.000000 0.000000 0.000000 -0.650308 1.615372 -1.589733 -54.742631 3.976602 -9.442946 -101.446876 -52.942748 62.109825 0.000000 0.000000 0.000000 -4.849952 2.506170 1.268983 41.359456 22.166983 2.855877 -115.855408 62.484659 -71.351971 0.000000 0.000000 0.000000 
0.001622 0.886455 0.004322 2.210748 1.258107 38.037762 11.410655 -0.474230 -54.500143 -3.923966 0.514789 27.356618 2.286017 4.915078 -1.574157 0.000000 0.000000 0.000000 -16.943260 -2.716654 -61.178165 7.868262 -2.198539 29.908929 -3.281404 -9.521782 0.559746 0.000000 0.000000 0.000000 5.658439 -5.690996 44.660611 -0.604531 0.305344 -3.100485 4.590879 9.677028 14.724551 -1.575409 2.262249 -11.466404 0.000000 0.000000 0.000000 -0.173425 3.461921 -2.144351 -52.269622 4.689416 -9.023409 -106.959797 -53.082389 67.959016 0.000000 0.000000 0.000000 -6.200258 3.250209 1.465544 40.265638 21.842582 2.691549 -114.366022 62.203485 -70.134146 0.000000 0.000000 0.000000 
0.002333 0.885841 0.005569 2.370747 2.401127 38.283687 11.099061 -0.923201 -55.607305 -3.907093 0.422266 27.164103 2.549288 5.390069 -2.165697 0.000000 0.000000 0.000000 -17.080600 -3.217186 -61.073622 7.844352 -2.322864 30.536651 -3.072418 -8.773622 0.343160 0.000000 0.000000 0.000000 5.556624 -5.934635 45.028082 -0.883010 0.421721 -3.615097 4.734328 9.636842 14.631194 -2.950090 2.914215 -8.894627 0.000000 0.000000 0.000000 -1.044614 1.865949 -1.735005 -50.775195 3.485811 -8.162403 -110.676259 -55.308199 74.193371 0.000000 0.000000 0.000000 -6.613191 3.893472 1.674605 37.539437 21.766417 2.256521 -110.105181 65.496574 -69.756288 0.000000 0.000000 0.000000 
